<?xml version="1.0" encoding="UTF-8" standalone="no"?>
<!-- Generator: Adobe Illustrator 19.0.0, SVG Export Plug-In . SVG Version: 6.00 Build 0)  -->

<!-- License: CC0. Made by SVG Repo: https://www.svgrepo.com/svg/255830/svg -->

<svg
   xmlns:dc="http://purl.org/dc/elements/1.1/"
   xmlns:cc="http://creativecommons.org/ns#"
   xmlns:rdf="http://www.w3.org/1999/02/22-rdf-syntax-ns#"
   xmlns:svg="http://www.w3.org/2000/svg"
   xmlns="http://www.w3.org/2000/svg"
   xmlns:sodipodi="http://sodipodi.sourceforge.net/DTD/sodipodi-0.dtd"
   xmlns:inkscape="http://www.inkscape.org/namespaces/inkscape"
   version="1.1"
   id="Layer_1"
   x="0px"
   y="0px"
   viewBox="0 0 512 512"
   style="enable-background:new 0 0 512 512;"
   xml:space="preserve"
   sodipodi:docname="step.svg"
   inkscape:version="0.92.4 (5da689c313, 2019-01-14)"><metadata
   id="metadata863"><rdf:RDF><cc:Work
       rdf:about=""><dc:format>image/svg+xml</dc:format><dc:type
         rdf:resource="http://purl.org/dc/dcmitype/StillImage" /><dc:title /></cc:Work></rdf:RDF></metadata><defs
   id="defs861" /><sodipodi:namedview
   pagecolor="#ffffff"
   bordercolor="#666666"
   borderopacity="1"
   objecttolerance="10"
   gridtolerance="10"
   guidetolerance="10"
   inkscape:pageopacity="0"
   inkscape:pageshadow="2"
   inkscape:window-width="1920"
   inkscape:window-height="1017"
   id="namedview859"
   showgrid="false"
   inkscape:zoom="1"
   inkscape:cx="-131.01488"
   inkscape:cy="271.91619"
   inkscape:window-x="-8"
   inkscape:window-y="531"
   inkscape:window-maximized="1"
   inkscape:current-layer="Layer_1" />
<path
   style="fill:#E2E5E7;"
   d="M128,0c-17.6,0-32,14.4-32,32v448c0,17.6,14.4,32,32,32h320c17.6,0,32-14.4,32-32V128L352,0H128z"
   id="path840" />
<path
   style="fill:#B0B7BD;"
   d="M384,128h96L352,0v96C352,113.6,366.4,128,384,128z"
   id="path842" />
<polygon
   style="fill:#CAD1D8;"
   points="480,224 384,128 480,128 "
   id="polygon844" />
<path
   style="fill:#6D7888;fill-opacity:1"
   d="M416,416c0,8.8-7.2,16-16,16H48c-8.8,0-16-7.2-16-16V256c0-8.8,7.2-16,16-16h352c8.8,0,16,7.2,16,16  V416z"
   id="path846" />
<g
   id="g854">
	
	
	
</g>
<path
   style="fill:#CAD1D8;"
   d="M400,432H96v16h304c8.8,0,16-7.2,16-16v-16C416,424.8,408.8,432,400,432z"
   id="path856" />
<g
   aria-label="STEP"
   transform="translate(10.972656,0.05495781)"
   style="font-style:normal;font-variant:normal;font-weight:900;font-stretch:normal;font-size:112px;line-height:1.25;font-family:Arial;-inkscape-font-specification:'Arial, Heavy';font-variant-ligatures:normal;font-variant-caps:normal;font-variant-numeric:normal;font-feature-settings:normal;text-align:start;letter-spacing:0px;word-spacing:0px;writing-mode:lr-tb;text-anchor:start;fill:#000000;fill-opacity:1;stroke:none"
   id="flowRoot874"><path
     d="m 71.222656,349.9177 15.75,-1.53125 q 1.421875,7.92969 5.742188,11.64844 4.375,3.71875 11.757816,3.71875 7.82031,0 11.75781,-3.28125 3.99219,-3.33594 3.99219,-7.76563 0,-2.84375 -1.69532,-4.8125 -1.64062,-2.02344 -5.79687,-3.5 -2.84375,-0.98437 -12.960939,-3.5 -13.015625,-3.22656 -18.265625,-7.92969 -7.382812,-6.61718 -7.382812,-16.13281 0,-6.125 3.445312,-11.42969 3.5,-5.35937 10.007813,-8.14843 6.5625,-2.78907 15.804691,-2.78907 15.09375,0 22.69531,6.61719 7.65625,6.61719 8.03906,17.66406 l -16.1875,0.71094 q -1.03906,-6.17969 -4.48437,-8.85937 -3.39063,-2.73438 -10.22657,-2.73438 -7.054684,0 -11.046871,2.89844 -2.570313,1.85937 -2.570313,4.97656 0,2.84375 2.40625,4.86719 3.0625,2.57031 14.875004,5.35937 11.8125,2.78907 17.44531,5.79688 5.6875,2.95312 8.85937,8.14844 3.22657,5.14062 3.22657,12.74218 0,6.89063 -3.82813,12.90625 -3.82812,6.01563 -10.82812,8.96875 -7,2.89844 -17.44532,2.89844 -15.203121,0 -23.351559,-7 -8.148437,-7.05469 -9.734375,-20.50781 z"
     style="font-style:normal;font-variant:normal;font-weight:bold;font-stretch:normal;font-size:112px;font-family:Arial;-inkscape-font-specification:'Arial, Bold';font-variant-ligatures:normal;font-variant-caps:normal;font-variant-numeric:normal;font-feature-settings:normal;text-align:start;writing-mode:lr-tb;text-anchor:start;fill:#ffffff;fill-opacity:1"
     id="path7245"
     inkscape:connector-curvature="0" /><path
     d="m 168.18359,376.00364 v -66.60938 h -23.78906 v -13.5625 h 63.71094 v 13.5625 h -23.73438 v 66.60938 z"
     style="font-style:normal;font-variant:normal;font-weight:bold;font-stretch:normal;font-size:112px;font-family:Arial;-inkscape-font-specification:'Arial, Bold';font-variant-ligatures:normal;font-variant-caps:normal;font-variant-numeric:normal;font-feature-settings:normal;text-align:start;writing-mode:lr-tb;text-anchor:start;fill:#ffffff;fill-opacity:1"
     id="path7247"
     inkscape:connector-curvature="0" /><path
     d="m 218.60547,376.00364 v -80.17188 h 59.44531 v 13.5625 h -43.25781 v 17.77344 h 40.25 v 13.50781 h -40.25 v 21.82031 h 44.78906 v 13.50782 z"
     style="font-style:normal;font-variant:normal;font-weight:bold;font-stretch:normal;font-size:112px;font-family:Arial;-inkscape-font-specification:'Arial, Bold';font-variant-ligatures:normal;font-variant-caps:normal;font-variant-numeric:normal;font-feature-settings:normal;text-align:start;writing-mode:lr-tb;text-anchor:start;fill:#ffffff;fill-opacity:1"
     id="path7249"
     inkscape:connector-curvature="0" /><path
     d="m 293.41797,376.00364 v -80.17188 h 25.97656 q 14.76563,0 19.25,1.20313 6.89063,1.80468 11.53906,7.875 4.64844,6.01562 4.64844,15.58593 0,7.38282 -2.67969,12.41407 -2.67968,5.03125 -6.83593,7.92968 -4.10157,2.84375 -8.36719,3.77344 -5.79688,1.14844 -16.78906,1.14844 h -10.55469 v 30.24219 z m 16.1875,-66.60938 v 22.75 h 8.85937 q 9.57032,0 12.79688,-1.25781 3.22656,-1.25781 5.03125,-3.9375 1.85937,-2.67969 1.85937,-6.23438 0,-4.375 -2.57031,-7.21875 -2.57031,-2.84375 -6.50781,-3.55468 -2.89844,-0.54688 -11.64844,-0.54688 z"
     style="font-style:normal;font-variant:normal;font-weight:bold;font-stretch:normal;font-size:112px;font-family:Arial;-inkscape-font-specification:'Arial, Bold';font-variant-ligatures:normal;font-variant-caps:normal;font-variant-numeric:normal;font-feature-settings:normal;text-align:start;writing-mode:lr-tb;text-anchor:start;fill:#ffffff;fill-opacity:1"
     id="path7251"
     inkscape:connector-curvature="0" /></g></svg>